<svg width="312" height="369" viewBox="0 0 312 369" fill="none" xmlns="http://www.w3.org/2000/svg">
<mask id="mask0_350_1228" style="mask-type:luminance" maskUnits="userSpaceOnUse" x="23" y="23" width="300" height="293">
<path fillRule="evenodd" clipRule="evenodd" d="M23 51.8C23 41.7191 23 36.6786 24.9619 32.8282C26.6876 29.4413 29.4413 26.6876 32.8282 24.9619C36.6786 23 41.7191 23 51.8 23L294.2 23C304.281 23 309.321 23 313.172 24.9619C316.559 26.6876 319.312 29.4413 321.038 32.8282C323 36.6786 323 41.7191 323 51.8V287.088C323 297.169 323 302.209 321.038 306.06C319.312 309.447 316.559 312.2 313.172 313.926C309.321 315.888 304.281 315.888 294.2 315.888H51.8C41.719 315.888 36.6786 315.888 32.8282 313.926C29.4413 312.2 26.6876 309.447 24.9619 306.06C23 302.209 23 297.169 23 287.088V51.8Z" fill="white"/>
</mask>
<g mask="url(#mask0_350_1228)">
<path opacity="0.7" d="M345.921 307.486C358.688 305.514 373.835 301.787 379.155 294.36C389.6 279.798 350.085 273.446 356.699 258.654C358.683 254.223 364.625 250.194 371.06 247.047C383.668 240.883 398.542 237.282 412.468 232.57C426.394 227.857 440.585 221.217 446.135 212.619C451.479 204.348 447.365 196.193 439.637 190.56C431.91 184.926 420.952 181.238 411.011 176.957C398.896 171.673 388.542 165.8 380.116 159.431C376.364 156.634 372.861 153.638 371.223 150.007C369.391 145.863 370.182 141.131 370.976 136.498L378.074 95.3307C379.018 89.8499 379.961 84.275 378.162 79.262C376.117 73.4732 370.611 68.7923 365.186 64.2257C353.489 54.3761 341.025 44.1739 321.196 40.0331C301.368 35.8923 300.966 73.6573 286.68 86.3389C273.078 98.4119 268.43 83.3401 245.234 106.893C226.129 126.291 182.938 105.202 156.97 137.473C146.165 150.901 165.832 172.96 166.871 186.52C168.331 205.548 153.212 215.14 141.957 224.661C132.026 233.061 110.555 227.436 100.369 232.855C90.1877 238.271 91.2926 254.733 77.2429 257.48C54.2374 261.979 28.3514 256.102 32.1128 293.242C41.2117 383.085 181.15 313.269 211.147 318.855C223.864 321.221 237.281 323.17 251.777 322.344C267.232 321.462 294.679 331.478 309.289 328.82C326.263 325.713 328.613 310.156 345.921 307.486Z" fill="#8487FF"/>
<path d="M252.324 211.135C252.324 211.135 284.958 214.459 295.993 242.813C307.028 271.166 370.488 290.062 370.488 290.062C370.488 290.062 370.152 290.213 369.52 290.483C326.814 308.61 274.406 285.617 270.154 246.806C268.58 232.378 263.992 217.164 252.324 211.135Z" fill="#F25178"/>
<path d="M252.324 211.133C252.324 211.133 280.257 222.767 284.333 243.98C288.408 265.192 337.307 301.261 370.488 290.061" stroke="#D2D2D2" strokeWidth="1.61243"/>
<path d="M277.982 291.19C277.982 291.19 296.2 275.461 312.801 289.365C329.402 303.269 369.596 281.461 369.596 281.461L369.256 282.291C354.045 318.741 317.996 331.551 300.963 306.497C294.569 297.183 286.352 288.978 277.982 291.19Z" fill="#6C63FF"/>
<path opacity="0.2" d="M277.982 291.19C277.982 291.19 296.2 275.461 312.801 289.365C329.402 303.269 369.596 281.461 369.596 281.461L369.256 282.291C354.045 318.741 317.996 331.551 300.963 306.497C294.569 297.183 286.352 288.978 277.982 291.19Z" fill="url(#paint0_linear_350_1228)"/>
<path d="M277.982 291.19C277.982 291.19 296.961 283.946 307.198 296.648C317.436 309.351 356.674 307.742 369.584 281.449" stroke="#9791FF" strokeWidth="1.61243"/>
<path d="M210.204 287.844C210.204 287.844 204.627 313.836 235.222 330.586C265.817 347.336 269.801 401.516 269.801 401.516C269.801 401.516 270.08 401.302 270.586 400.897C304.695 373.454 292.591 326.551 247.54 311.944C230.79 306.518 213.985 298.553 210.204 287.844Z" fill="#F25178"/>
<path d="M210.203 287.846C210.203 287.846 215.913 312.663 240.024 321.99C264.134 331.316 292.861 379.352 269.801 401.517" stroke="#D2D2D2" strokeWidth="1.61243"/>
<path d="M258.397 294.718C258.397 294.718 234.309 304.086 246.04 320.879C257.771 337.672 220.007 362.113 220.007 362.113L221.096 362.095C269.021 361.09 294.841 337.196 269.936 316.812C260.696 309.187 253.312 300.489 258.397 294.718Z" fill="#6C63FF"/>
<path d="M258.397 294.718C258.397 294.718 234.309 304.086 246.04 320.879C257.771 337.672 220.007 362.113 220.007 362.113L221.096 362.095C269.021 361.09 294.841 337.196 269.936 316.812C260.696 309.187 253.312 300.489 258.397 294.718Z" fill="#F25178"/>
<path d="M258.397 294.719C258.397 294.719 244.207 307.151 256.366 318.714C268.524 330.277 255.133 359.89 219.996 362.101" stroke="#D2D2D2" strokeWidth="1.61243"/>
<path d="M166.634 230.933C166.634 230.933 178.572 274.904 240.355 285.754C302.138 296.604 351.718 380.278 351.718 380.278C351.718 380.278 351.988 379.797 352.465 378.897C384.509 318.036 327.896 250.025 244.953 249.96C214.12 249.945 181.169 245.94 166.634 230.933Z" fill="#F25178"/>
<path d="M166.634 230.932C166.634 230.932 195.491 267.274 241.086 269.695C286.68 272.117 370.497 333.416 351.718 380.278" stroke="#D2D2D2" strokeWidth="2.75726"/>
<path d="M248.371 217.153C248.371 217.153 217.745 244.295 249.717 264.862C281.689 285.428 241.465 343.411 241.465 343.411L243.174 342.825C318.193 316.72 339.959 265.713 284.274 246.204C263.565 238.868 244.935 228.884 248.371 217.153Z" fill="#6C63FF"/>
<path d="M248.371 217.153C248.371 217.153 217.745 244.295 249.717 264.862C281.689 285.428 241.465 343.411 241.465 343.411L243.174 342.825C318.193 316.72 339.959 265.713 284.274 246.204C263.565 238.868 244.935 228.884 248.371 217.153Z" fill="#F25178"/>
<path d="M248.371 217.152C248.371 217.152 235.851 244.079 264.323 256.153C292.795 268.227 295.262 321.925 241.437 343.395" stroke="#D2D2D2" strokeWidth="2.75726"/>
<path d="M239.641 106.369C235.761 108.588 231.709 112.224 232.72 117.928C234.699 129.114 251.666 131.262 255.136 142.376C256.174 145.705 255.606 148.99 254.507 151.666C252.352 156.908 248.351 160.436 245.137 164.71C241.924 168.983 239.38 174.668 240.774 181.234C242.113 187.552 246.861 193.198 251.927 196.796C256.993 200.394 262.465 202.383 267.801 204.866C274.331 207.938 280.452 211.547 286.065 215.633C288.55 217.425 291.022 219.376 293.066 221.902C295.384 224.788 296.978 228.261 298.532 231.663L312.321 261.895C314.157 265.92 316.032 270.013 318.684 273.529C321.735 277.592 325.61 280.638 329.409 283.607C337.603 290.01 346.218 296.62 355.112 298.388C364.006 300.155 373.103 295.259 373.277 285.196C373.443 275.615 365.912 265.576 364.99 255.735C363.538 240.227 378.58 232.781 378.421 217.562C378.272 202.96 364.751 189.725 359.064 175.008C354.991 164.461 355.129 153.491 351.977 142.764C347.419 127.315 336.177 113.579 323.684 104.874C311.192 96.1693 297.551 91.9705 284.366 89.7873C278.777 88.8633 273.099 88.2846 268.13 89.7805C262.834 91.3769 261.006 96.4191 256.725 99.248C251.758 102.549 244.903 103.364 239.641 106.369Z" fill="#FFBB00"/>
<path d="M264.012 92.1219C264.012 92.1219 346.817 214.583 364.167 297.871" stroke="#FFD152" strokeWidth="1.14547"/>
<path d="M232.929 118.58C232.929 118.58 286.662 123.929 307.131 162.918" stroke="#FFD152" strokeWidth="1.14547"/>
<path d="M241.742 184.455C241.742 184.455 311.235 168.795 322.248 191.057" stroke="#FFD152" strokeWidth="1.14547"/>
<path d="M323.588 104.61C323.588 104.61 306.952 125.944 310.287 168.616" stroke="#FFD152" strokeWidth="1.14547"/>
<path d="M313.37 260.041C313.37 260.041 347.573 244.793 341.622 231.477" stroke="#FFD152" strokeWidth="1.14547"/>
</g>
<defs>
<linearGradient id="paint0_linear_350_1228" x1="277.803" y1="291.006" x2="306.578" y2="336.945" gradientUnits="userSpaceOnUse">
<stop stop-color="#FBFBFB"/>
<stop offset="1" stop-color="#F5F5F5"/>
</linearGradient>
</defs>
</svg>
